<svg width="101" height="15" viewBox="0 0 101 15" fill="none" xmlns="http://www.w3.org/2000/svg">
<path d="M0.198 14L4.914 0.589999H7.542L12.258 14H9.99L8.964 10.994H3.51L2.466 14H0.198ZM4.122 9.104H8.316L5.94 2.084H6.534L4.122 9.104ZM13.8489 14V0.589999H15.5589L23.0829 10.976L22.2729 11.102V0.589999H24.3789V14H22.6689L15.1989 3.542L15.9729 3.398V14H13.8489ZM27.1555 14V0.589999H29.2795V14H27.1555ZM32.0598 14V0.589999H34.0398L39.0798 7.574H38.0898L43.0398 0.589999H45.0198V14H42.9138V3.092L43.7058 3.308L38.6478 10.22H38.4318L33.4818 3.308L34.1838 3.092V14H32.0598ZM46.6043 14L51.3203 0.589999H53.9483L58.6643 14H56.3963L55.3703 10.994H49.9163L48.8723 14H46.6043ZM50.5283 9.104H54.7223L52.3463 2.084H52.9403L50.5283 9.104ZM61.7347 14V2.48H58.1707V0.589999H67.3507V2.48H63.8407V14H61.7347ZM68.9387 14V0.589999H71.0627V14H68.9387ZM80.359 14.216C79.387 14.216 78.481 14.042 77.641 13.694C76.813 13.346 76.081 12.86 75.445 12.236C74.821 11.612 74.329 10.88 73.969 10.04C73.621 9.2 73.447 8.282 73.447 7.286C73.447 6.29 73.621 5.372 73.969 4.532C74.329 3.68 74.821 2.948 75.445 2.336C76.069 1.712 76.801 1.232 77.641 0.895999C78.481 0.547999 79.387 0.373999 80.359 0.373999C81.343 0.373999 82.249 0.547999 83.077 0.895999C83.917 1.232 84.649 1.712 85.273 2.336C85.909 2.96 86.401 3.692 86.749 4.532C87.097 5.372 87.271 6.29 87.271 7.286C87.271 8.282 87.091 9.2 86.731 10.04C86.383 10.88 85.897 11.612 85.273 12.236C84.649 12.86 83.917 13.346 83.077 13.694C82.237 14.042 81.331 14.216 80.359 14.216ZM80.359 12.272C81.055 12.272 81.691 12.146 82.267 11.894C82.855 11.642 83.365 11.294 83.797 10.85C84.229 10.394 84.565 9.866 84.805 9.266C85.045 8.654 85.165 7.994 85.165 7.286C85.165 6.578 85.045 5.924 84.805 5.324C84.565 4.724 84.229 4.196 83.797 3.74C83.365 3.284 82.855 2.93 82.267 2.678C81.691 2.426 81.055 2.3 80.359 2.3C79.663 2.3 79.021 2.426 78.433 2.678C77.857 2.93 77.353 3.284 76.921 3.74C76.489 4.196 76.153 4.724 75.913 5.324C75.685 5.924 75.571 6.578 75.571 7.286C75.571 7.994 75.685 8.654 75.913 9.266C76.153 9.866 76.489 10.394 76.921 10.85C77.353 11.294 77.863 11.642 78.451 11.894C79.039 12.146 79.675 12.272 80.359 12.272ZM89.6458 14V0.589999H91.3558L98.8798 10.976L98.0698 11.102V0.589999H100.176V14H98.4658L90.9958 3.542L91.7698 3.398V14H89.6458Z" fill="black"/>
</svg>
